<?xml version="1.0" encoding="utf-8"?>
<!-- Generator: Adobe Illustrator 21.1.0, SVG Export Plug-In . SVG Version: 6.00 Build 0)  -->
<svg version="1.1" id="Layer_1" xmlns="http://www.w3.org/2000/svg" xmlns:xlink="http://www.w3.org/1999/xlink" x="0px" y="0px"
	 viewBox="0 0 104 16" style="enable-background:new 0 0 104 16;" xml:space="preserve">
<style type="text/css">
	.st0{fill:#171916;}
</style>
<g>
	<polygon class="st0" points="34.5,5.3 38.3,5.3 38.3,15.8 41.9,15.8 41.9,5.3 45.7,5.3 45.7,2.1 34.5,2.1 	"/>
	<path class="st0" d="M55.4,12.5c-0.5,0.2-1,0.3-1.5,0.3c-0.5,0-1-0.1-1.5-0.3c-0.4-0.2-0.8-0.5-1.1-0.8c-0.3-0.4-0.6-0.8-0.7-1.2
		c-0.3-1-0.3-2.1,0-3.1C50.8,7,51,6.6,51.3,6.2c0.3-0.4,0.7-0.6,1.1-0.8c0.5-0.2,1-0.3,1.5-0.3c0.5,0,1,0.1,1.5,0.3
		c0.4,0.2,0.8,0.5,1.1,0.8c0.3,0.4,0.6,0.8,0.7,1.2c0.3,1,0.3,2.1,0,3.1c-0.2,0.5-0.4,0.9-0.7,1.2C56.2,12.1,55.9,12.4,55.4,12.5
		 M59.1,3.9c-0.7-0.6-1.5-1.1-2.3-1.5c-1.9-0.7-3.9-0.7-5.8,0c-0.9,0.3-1.6,0.8-2.3,1.5c-0.7,0.6-1.2,1.4-1.5,2.2
		c-0.7,1.8-0.7,3.9,0,5.7c0.4,0.8,0.9,1.6,1.5,2.2c0.7,0.6,1.5,1.1,2.3,1.5c1.9,0.7,3.9,0.7,5.8,0c0.9-0.3,1.6-0.8,2.3-1.5
		c0.7-0.6,1.2-1.4,1.5-2.2c0.7-1.8,0.7-3.9,0-5.7C60.3,5.3,59.8,4.5,59.1,3.9"/>
	<path class="st0" d="M72.8,8.9c0,0.5-0.1,1-0.2,1.4c-0.3,0.9-1,1.6-1.9,2c-0.5,0.2-1,0.3-1.6,0.3H67V5.2h2.2c0.6,0,1.1,0.1,1.6,0.3
		c0.4,0.2,0.8,0.4,1.2,0.8c0.3,0.3,0.5,0.7,0.7,1.2C72.8,7.9,72.9,8.4,72.8,8.9 M74.4,3.9c-0.7-0.6-1.5-1.1-2.3-1.4
		c-1-0.3-1.9-0.5-3-0.5h-5.8v13.7h5.8c1,0,2-0.1,3-0.5c0.9-0.3,1.7-0.8,2.3-1.4c0.7-0.6,1.2-1.3,1.5-2.1c0.4-0.9,0.6-1.9,0.6-2.9
		c0-1-0.2-2-0.6-2.9C75.6,5.3,75.1,4.5,74.4,3.9"/>
	<path class="st0" d="M85.8,10.7h-3.3l1.7-4.9L85.8,10.7z M86.4,2.1h-4.5l-5.1,13.6v0.1h4.1l0.7-1.9h5.3l0.7,1.9h4.1L86.4,2.1
		L86.4,2.1z"/>
	<polygon class="st0" points="99.9,2.1 97,7 94.1,2.1 94.1,2.1 90,2.1 95.2,10.3 95.2,15.8 98.8,15.8 98.8,10.3 104,2.1 	"/>
	<path class="st0" d="M15.7,0C7.4,0,0.5,6.5,0,14.9c0,0.3,0,0.5,0,0.8h4.1c0-0.3,0-0.5,0-0.8c0.4-6.4,6-11.3,12.5-10.8
		C22.4,4.5,27,9.2,27.4,15c0,0.2,0,0.5,0,0.7h4.1c0-0.2,0-0.4,0-0.6C31.1,6.7,24.2,0,15.7,0"/>
	<path class="st0" d="M15.7,5.2C10.2,5.2,5.6,9.5,5.3,15c0,0.2,0,0.5,0,0.7h4.1c0-3.5,2.9-6.4,6.4-6.4c3.3,0,6,2.5,6.4,5.7
		c0,0.2,0,0.5,0,0.7h4.1c0-0.2,0-0.5,0-0.7C25.9,9.5,21.3,5.2,15.7,5.2"/>
	<path class="st0" d="M15.7,10.5c-2.9,0-5.2,2.3-5.3,5.2c0,0,0,0,0,0H21C21,12.8,18.6,10.5,15.7,10.5"/>
</g>
</svg>
