<?xml version="1.0" encoding="utf-8"?>
<!-- Generator: Adobe Illustrator 21.1.0, SVG Export Plug-In . SVG Version: 6.00 Build 0)  -->
<svg version="1.1" id="Layer_1" xmlns="http://www.w3.org/2000/svg" xmlns:xlink="http://www.w3.org/1999/xlink" x="0px" y="0px"
	 viewBox="0 0 148 12.7" style="enable-background:new 0 0 148 12.7;" xml:space="preserve">
<style type="text/css">
	.st0{fill:#1C1C21;}
</style>
<g id="layer1_1_" transform="translate(-67.092411,-701.4412)">
	<path id="path13406" class="st0" d="M214.3,712.3c-0.4,0-0.8,0.4-0.8,0.8c0,0.5,0.4,0.8,0.8,0.8c0.4,0,0.8-0.4,0.8-0.8
		C215.1,712.6,214.8,712.3,214.3,712.3 M185.8,713.9h3.6v-0.3l-0.4-0.1c-0.4-0.1-0.5-0.3-0.5-0.8v-4.8h0.8c0.5,0,0.8,0.1,0.8,1.2
		l0.1,2.3c0.1,2,0.7,2.6,1.7,2.6s1.3-0.7,1.3-1.7v-0.4h-0.4v0.3c0,0.7-0.1,1.1-0.3,1.1c-0.2,0-0.2-0.2-0.3-1l-0.1-1.6
		c-0.1-2.1-0.4-2.8-2-3.1c1.5-0.4,2.4-1.5,2.4-3c0-2-1.6-3-3.1-3h-6.1v0.3l0.3,0.1c0.6,0.1,0.7,0.5,0.7,1.9v7.2
		c0,1.6-0.4,2.4-1.5,2.4c-0.9,0-1.4-0.4-1.4-2.2v-8.5c0-0.5,0.2-0.6,0.6-0.7l0.5-0.1v-0.3h-3.7v0.3l0.4,0.1c0.4,0.1,0.5,0.2,0.5,0.7
		v8.4c0,1.9,1.1,2.9,2.7,2.9c1.7,0,2.5-1,2.5-3v-7.8c0-1,0.2-1.3,1-1.3c0.6,0,0.9,0.2,0.9,0.8v10c0,0.5-0.2,0.7-0.5,0.8l-0.4,0.1
		v0.3H185.8z M209.9,702.8c0-0.5,0.2-0.7,0.5-0.7l0.5-0.1v-0.3h-3.7v0.3l0.4,0.1c0.4,0.1,0.5,0.2,0.5,0.7v10.1
		c0,0.5-0.2,0.7-0.7,0.7c-0.6,0-0.7-0.2-1-1.3l-2.3-10.8h-0.7l-2.2,10.4c-0.2,1.2-0.4,1.4-0.9,1.6l-0.3,0.1v0.3h2.5v-0.3l-0.4-0.1
		c-0.5-0.1-0.7-0.4-0.4-1.7l1.3-6.6l1.4,7.1c0.2,1,0.2,1.2-0.6,1.4l-0.4,0.1v0.3h9.5v-4.1h-0.3c-0.2,1.9-0.6,3.6-2.1,3.6h-0.7
		L209.9,702.8L209.9,702.8z M204.2,710.6v-0.5h-2.4l-0.1,0.5H204.2z M194.2,703v8.6c0,1.3,0,1.9-0.6,2l-0.3,0.1v0.3h2.6v-0.3
		c-1.1-0.2-1.1-0.6-1.1-1.9v-8.2l-0.4-0.4l4.4,10.8h0.7v-10c0-1.5,0-1.8,0.7-2l0.2-0.1v-0.3h-2.7v0.3l0.3,0.1
		c0.9,0.2,0.9,0.5,0.9,1.9v6.2l0.2-0.1l-3.3-8.5h-2.5v0.3l0.2,0.1C193.7,702,193.9,702.3,194.2,703 M188.5,701.9h0.7
		c0.7,0,1.4,0.5,1.4,2.8c0,2.4-0.5,2.6-1.5,2.6h-0.6L188.5,701.9L188.5,701.9z M176.5,707.6c0,5.1-0.4,5.9-1.4,5.9
		c-0.9,0-1.3-0.7-1.3-5.8c0-4.9,0.4-5.7,1.3-5.7C176.1,701.9,176.5,702.7,176.5,707.6 M178.5,707.7c0-3.4-1.1-6.2-3.3-6.2
		c-2.2,0-3.3,2.8-3.3,6.2s1.1,6.2,3.3,6.2C177.4,714,178.5,711.2,178.5,707.7 M170.8,702.8c0-0.5,0.1-0.7,0.5-0.7l0.4-0.1v-0.3h-3.7
		v0.3l0.4,0.1c0.4,0.1,0.6,0.2,0.6,0.7v8.7c0,1.2-0.1,2.2-1,2.2c-0.6,0-1-0.4-1-0.8c0.1-0.6,1-0.5,1.1-1.4c0.1-0.6-0.4-0.9-0.7-1
		c-0.6-0.1-1.2,0.4-1.2,1.3c0,1.2,0.8,2.3,2.1,2.3c1.5,0,2.6-1,2.6-2.9L170.8,702.8L170.8,702.8z M110.9,702.8
		c0-0.5,0.2-0.7,0.5-0.7l0.5-0.1v-0.3h-3.7v0.3l0.4,0.1c0.4,0.1,0.5,0.2,0.5,0.7v10.1c0,0.5-0.2,0.7-0.7,0.7c-0.6,0-0.7-0.2-1-1.3
		l-2.3-10.8h-0.7l-2.2,10.4c-0.2,1.2-0.4,1.4-0.9,1.6l-0.3,0.1v0.3h2.5v-0.3l-0.4-0.1c-0.5-0.1-0.7-0.4-0.4-1.7l1.3-6.6l1.4,7.1
		c0.2,1,0.2,1.2-0.6,1.4l-0.4,0.1v0.3h9.6v-4.1h-0.3c-0.2,1.9-0.6,3.6-2.1,3.6h-0.7v-10.7H110.9z M160.8,701.9h0.4
		c1.1,0,1.5,1.8,1.6,3.6h0.3v-4.1h-6.5v4.1h0.3c0.1-1.9,0.5-3.6,1.6-3.6h0.4v10.7c0,0.5-0.2,0.7-0.5,0.8l-0.5,0.1v0.3h3.8v-0.3
		l-0.6-0.1c-0.3-0.1-0.5-0.2-0.5-0.7L160.8,701.9L160.8,701.9z M152.6,707.7h0.6c0.8,0,1,0.3,1.2,2.3h0.3v-4.9h-0.3
		c-0.2,1.5-0.4,2.2-1.2,2.2h-0.6v-5.3h1.2c1.4,0,1.7,1.7,1.9,3.6h0.3v-4.1h-6.1v0.3l0.4,0.1c0.4,0.1,0.5,0.4,0.5,0.8v10
		c0,0.5-0.2,0.7-0.5,0.8l-0.4,0.1v0.3h6.3v-4.1H156c-0.2,1.9-0.4,3.6-2,3.6h-1.2L152.6,707.7L152.6,707.7z M145.9,707.7h0.6
		c0.8,0,1,0.3,1.2,2.3h0.3v-4.9h-0.3c-0.2,1.5-0.4,2.2-1.2,2.2h-0.6v-5.3h1.2c1.4,0,1.7,1.8,1.9,3.6h0.3v-4.1H143v0.3l0.6,0.1
		c0.4,0.1,0.5,0.4,0.5,0.8v10c0,0.5-0.2,0.7-0.5,0.8l-0.4,0.1v0.3h6.3v-4.1h-0.3c-0.2,1.9-0.4,3.6-2,3.6H146v-5.6H145.9z
		 M138.5,701.9h0.5c0.7,0,1.4,0.5,1.4,2.8s-0.5,2.6-1.5,2.6h-0.4V701.9z M135.8,713.9h3.6v-0.3l-0.4-0.1c-0.4-0.1-0.5-0.3-0.5-0.8
		v-4.8h0.7c0.5,0,0.8,0.2,0.8,1.2l0.1,2.3c0.1,2,0.7,2.6,1.7,2.6s1.3-0.7,1.3-1.7v-0.4h-0.4v0.3c0,0.7-0.1,1.1-0.3,1.1
		c-0.2,0-0.2-0.2-0.3-1l-0.1-1.6c-0.1-2.2-0.4-2.8-2-3.1c1.5-0.4,2.4-1.5,2.4-3c0-2-1.6-3-3.1-3h-3.4v0.3l0.4,0.1
		c0.4,0.1,0.5,0.2,0.5,0.7v10c0,0.5-0.2,0.7-0.5,0.8l-0.4,0.1v0.4H135.8z M133.1,701.9h0.4c1.1,0,1.5,1.8,1.6,3.6h0.3v-4.1h-6.5v4.1
		h0.3c0.1-1.9,0.5-3.6,1.6-3.6h0.4v10.7c0,0.5-0.2,0.7-0.5,0.8l-0.5,0.1v0.3h3.8v-0.3l-0.5-0.1c-0.5-0.1-0.5-0.5-0.5-0.8v-10.7
		H133.1z M129,710.7c0-3.6-4-4.6-4-7.4c0-0.6,0.2-1.4,1.1-1.4c1.3,0,1.8,1.7,2,3.7h0.3v-4.1h-0.2c-0.1,0.4-0.2,0.6-0.5,0.6
		c-0.4,0-0.6-0.6-1.6-0.6c-1.5,0-2.5,1.3-2.5,2.9c0,3,4,4.3,4,7.2c0,1.3-0.6,2-1.4,2c-1.2,0-2-1.4-2.2-3.7h-0.3v4.1h0.2
		c0.2-0.6,0.4-0.6,0.6-0.6c0.3,0,0.7,0.7,1.7,0.7C127.6,713.9,129,712.6,129,710.7 M117.2,702.8c0-0.5,0.2-0.7,0.5-0.7l0.5-0.1v-0.3
		h-3.7v0.3l0.4,0.1c0.4,0.1,0.5,0.2,0.5,0.7v10c0,0.5-0.2,0.7-0.5,0.8l-0.4,0.1v0.3h5.8v-4.1H120c-0.2,1.9-0.6,3.6-2.1,3.6h-0.7
		C117.2,713.4,117.2,702.8,117.2,702.8z M105.3,710.6v-0.5h-2.4l-0.1,0.5H105.3L105.3,710.6z M94.9,713.9h0.8l1.7-8.9h-0.2l1.8,8.9
		h0.6l2.2-10.4c0.2-1.1,0.4-1.5,0.8-1.6l0.3-0.1v-0.3h-2.5v0.3l0.4,0.1c0.5,0.1,0.7,0.4,0.4,1.7l-1.4,7h0.2l-1.4-7.4
		c-0.1-0.7-0.2-1.3,0.4-1.4l0.4-0.1v-0.3H96v0.3l0.2,0.1c0.4,0.1,0.4,0.3,0.6,1l0.6,2.7l-0.1-1.6l-1.2,6.5h0.2l-1.4-7.2
		c-0.2-0.7-0.2-1.3,0.4-1.4l0.3-0.1v-0.3h-3.5v0.3l0.3,0.1c0.3,0.1,0.5,0.2,0.7,1.2L94.9,713.9L94.9,713.9z M85.3,707.7h0.6
		c0.8,0,1,0.3,1.2,2.3h0.3v-4.9h-0.3c-0.2,1.5-0.4,2.2-1.2,2.2h-0.6v-5.3h1.2c1.4,0,1.7,1.8,1.9,3.6h0.3v-4.1h-6.1v0.3l0.4,0.1
		c0.4,0.1,0.5,0.4,0.5,0.8v10c0,0.5-0.2,0.7-0.5,0.8l-0.4,0.1v0.3H89v-4.1h-0.3c-0.2,1.9-0.4,3.6-2,3.6h-1.2v-5.6H85.3z M74,713.9
		h3.6v-0.3l-0.4-0.1c-0.3-0.1-0.5-0.3-0.5-0.8v-4.9h2.7v4.9c0,0.5-0.2,0.7-0.5,0.8l-0.4,0.1v0.3h3.6v-0.3l-0.4-0.1
		c-0.4-0.1-0.5-0.3-0.5-0.8v-10c0-0.5,0.2-0.7,0.5-0.7l0.4-0.1v-0.3h-3.6v0.3L79,702c0.3,0.1,0.5,0.2,0.5,0.7v4.6h-2.7v-4.6
		c0-0.5,0.2-0.6,0.5-0.7l0.4-0.1v-0.3H74v0.3l0.4,0.1c0.4,0.1,0.5,0.2,0.5,0.7v10c0,0.5-0.2,0.7-0.5,0.8l-0.4,0.1L74,713.9L74,713.9
		z M71.3,701.9h0.4c1.1,0,1.5,1.8,1.6,3.6h0.3v-4.1h-6.5v4.1h0.4c0.1-1.9,0.5-3.6,1.6-3.6h0.4v10.7c0,0.5-0.2,0.7-0.5,0.8l-0.5,0.1
		v0.3h3.8v-0.3l-0.6-0.1c-0.3-0.1-0.5-0.2-0.5-0.7L71.3,701.9L71.3,701.9z"/>
</g>
</svg>
