<?xml version="1.0" encoding="utf-8"?>
<!-- Generator: Adobe Illustrator 21.1.0, SVG Export Plug-In . SVG Version: 6.00 Build 0)  -->
<svg version="1.1" id="Layer_1" xmlns="http://www.w3.org/2000/svg" xmlns:xlink="http://www.w3.org/1999/xlink" x="0px" y="0px"
	 viewBox="0 0 116.3 17.3" style="enable-background:new 0 0 116.3 17.3;" xml:space="preserve">
<g>
	<path d="M55.2,4.7c0,2.3-0.3,9.6-0.3,9.6c0,1.4,0.5,2,1.8,2v0.6h-5.2v-0.6c1.3,0,2-0.6,2-2L54,2.4c-0.4-0.9-0.8-1.3-1.8-1.3V0.6
		h3.9l4.2,11.1l4.3-11.1h3.6v0.5c-1,0-1.6,0.5-1.6,1.6l0.5,11.5c0,1.7,0.3,2.2,1.7,2.2v0.6h-6v-0.6c1.2,0,1.7-0.4,1.7-2.2
		c0,0-0.3-8-0.3-9.4l-2.8,8c-0.4,1.1-0.8,2.3-1.1,3.4l-0.9,0.1c-0.3-0.8-0.8-2.4-0.8-2.4S56.1,7,55.2,4.7L55.2,4.7z M50.4,17
		c-0.3-0.1-0.6-0.1-0.9-0.1c-0.6,0-1.7,0.3-3,0.3c-5,0-8.8-3-8.8-8.6c0-4.8,3.5-8.4,8.9-8.4c1.3,0,2.7,0.3,3.9,0.7
		c0.3-0.3,0.3-0.4,0.5-0.6h0.5C51.3,1.2,50.9,4,50.9,4h-0.5c-0.3-1.7-1.2-2.8-3.9-2.8c-3.3,0-6.2,2.6-6.2,7.3c0,5.4,3,7.7,6.4,7.7
		c2.2,0,3.5-1.3,4.4-2.8l0.5,0.3L50.4,17L50.4,17z M35.6,3.6h-0.5c-0.1-1.5-0.5-1.9-1.7-1.9h-2.3v12.2c0,2,0.4,2.4,1.7,2.4v0.6H27
		v-0.6c1.3,0,1.7-0.4,1.7-2.5V1.7h-2.3c-1.5,0-1.7,0.4-2.1,1.9h-0.5l0.4-3.5l0.4,0.1c0.2,0.4,0.5,0.4,1.4,0.4h7.5c1.4,0,1.7,0,2-0.5
		h0.5L35.6,3.6z"/>
	<path d="M19.1,17.3c-1.1,0-1.9-0.2-2.6-0.4c-0.5-0.1-0.9-0.3-1.3-0.6c-0.2,0.3-0.4,0.4-0.6,0.7l-0.5-0.2l0.4-3.7l0.5,0.1
		c0.3,1.7,1.5,2.9,3.9,2.9c1.8,0,3.1-1.6,3.1-3.3c0-1.4-0.5-2.1-2.4-3.5c-0.6-0.4-1.2-0.7-1.6-1.1c-1.7-1.1-2.8-2.3-2.8-4.4
		c0-2.3,1.9-3.9,4.5-3.9c1.5,0,2.4,0.5,2.8,0.6L23,0l0.4,0.1L23,3.4l-0.6-0.1c0-1.6-0.9-2.3-2.5-2.3c-1.5,0-2.6,0.8-2.6,2.3
		c0,1.3,1,2.2,2.2,2.9c0.6,0.4,1.1,0.7,1.6,1c2.8,1.9,3.4,3.2,3.4,5C24.5,15.2,22.5,17.3,19.1,17.3L19.1,17.3z M10.2,3.6H9.6
		c0-1.4-0.6-1.9-1.8-1.9H4.3v6.1h2.3c1.2,0,1.4-0.6,1.6-1.6h0.5v4.4H8.1C8,9.4,7.7,9,6.5,9H4.4v5.2c0,1.9,0.5,2.2,1.7,2.2v0.6H0
		v-0.6c1.5,0,1.7-0.4,1.7-2.2V2.7c0-1.1-0.5-1.6-1.7-1.6V0.6h8.1c1.4,0,1.7-0.1,1.9-0.5h0.5L10.2,3.6z M94.2,4.5v9.3
		c0,2,0.5,2.4,1.7,2.4v0.6h-9.2v-0.6c0.7,0,1.3-0.3,1.3-0.7c0-0.3-0.1-0.8-0.3-1.4l-0.7-2.3h-5.1c-0.1,0.3-1,2.8-1,3.6
		c0,0.6,0.7,0.8,1.2,0.8v0.6h-4.3v-0.6c0.8,0,1.4-0.1,1.9-1.7l3.9-12.7c-0.3-0.6-0.5-0.7-1.1-0.8V0.7h3.5L90.3,14
		c0.4,1.4,0.8,2.1,1.4,2.4c0.9-0.3,1.2-0.6,1.2-2.4V2.7c-0.7-0.9-0.8-1.6-2.1-1.6V0.6h3.9l6.5,11.1V3.2c0-1.7-0.4-2.1-1.7-2.1V0.6
		h8.8v0.5c-0.5,0-1,0.3-1,0.8c0,0.4,0.2,0.8,0.3,1.3l2.5,5.4l2.4-5.2c0.4-0.7,0.5-1.1,0.5-1.5c0-0.5-0.3-0.7-1-0.7V0.6h4.1v0.5
		c-1,0-1.6,0.9-2.1,2L111,9.6v4.3c0,1.8,0.5,2.3,1.7,2.3v0.6h-5.9v-0.6c1.3,0,1.7-0.5,1.7-2.3v-3.6L105,3.1
		c-0.6-1.4-0.8-1.7-1.3-1.9c-0.8,0.3-1,0.8-1,2.1v12c0,0,0.1,0.9,0.2,2l-1,0.1L94.2,4.5L94.2,4.5z M84.5,3.8l-2.2,7.1h4.5L84.5,3.8
		L84.5,3.8z"/>
	<path d="M74.8,10.8h-1.2v3.4c0,1.7,0.5,2.1,1.8,2.1v0.6h-6v-0.6c1.3,0,1.7-0.5,1.7-2.2v-11c0-1.7-0.5-2-1.7-2V0.6h4.5
		c4.4,0,7,1.3,7,4.9C80.9,9.2,77.8,10.8,74.8,10.8L74.8,10.8z M74.1,1.7h-0.4v8h0.7c2.6,0,3.9-1.2,3.9-4.1S77.1,1.7,74.1,1.7z
		 M47.7,13.8c-2.9,0-4.9-2.1-4.9-5.1c0-2.8,2.1-5.1,4.9-5.1c2.8,0,4.9,2.2,4.9,5.1C52.5,11.6,50.4,13.8,47.7,13.8z M47.7,4.4
		c-2,0-2.8,1.9-2.8,4.2c0,2.1,0.6,4.2,2.8,4.2c2,0,2.7-2.1,2.7-4.3C50.4,6.5,49.5,4.4,47.7,4.4L47.7,4.4z M13.4,12.8v-0.6
		c0.8,0,0.9-0.3,0.9-0.5c0-0.3-0.1-0.5-0.2-0.8c0,0-0.2-0.6-0.3-1.1h-3l-0.3,1c-0.1,0.3-0.2,0.5-0.2,0.8c0,0.3,0.3,0.5,0.8,0.5v0.7
		H8v-0.6c0.8,0,1.1-0.3,1.4-1.1l2.3-7c-0.1-0.3-0.3-0.5-0.8-0.5V3.1h2.5c2,5.9,2.6,7.5,2.6,7.5c0.4,1.3,0.8,1.7,1.4,1.7v0.6H13.4
		L13.4,12.8z M12.3,5.3l-1.2,3.9h2.4L12.3,5.3L12.3,5.3z"/>
</g>
</svg>
