<svg id="Layer_3" data-name="Layer 3" xmlns="http://www.w3.org/2000/svg" viewBox="0 0 210.38 113.49"><title>Artboard 1</title><polyline points="209.38 24.05 199.17 11.79 185.85 38.41 139.19 33.21 97.29 49.9 45.67 19.9 1.01 35.71 1.04 32.21 46.52 15.34 117.82 2.77 198.66 7.52 209.38 20.52 209.38 24.05" fill="none" stroke="#fff" stroke-miterlimit="10" stroke-width="2"/><polygon points="208.92 73.19 101.43 57.24 6.36 88.33 94.47 111.75 137.73 85.03 182 93.28 208.92 73.19" fill="#4b64f9"/><polyline points="72.89 93.6 72.89 58.98 55.05 55.16 55.05 89.27" fill="none" stroke="#fff" stroke-miterlimit="10" stroke-width="2"/><polyline points="12.3 31.44 12.3 78.08 90.03 97.18 133.48 73.65 133.48 35.54" fill="none" stroke="#fff" stroke-miterlimit="10" stroke-width="3"/><line x1="139.19" y1="33.02" x2="139.19" y2="29.79" fill="none" stroke="#fff" stroke-miterlimit="10" stroke-width="2"/><polyline points="97.37 45.38 139.19 30.17 184.71 34.66 198.66 7.52" fill="none" stroke="#fff" stroke-miterlimit="10" stroke-width="2"/><polyline points="46.18 15.61 97.37 45.38 97.37 49.9" fill="none" stroke="#fff" stroke-miterlimit="10" stroke-width="2"/><line x1="1.01" y1="35.71" x2="12.3" y2="33.79" fill="none" stroke="#fff" stroke-miterlimit="10" stroke-width="2"/><polyline points="203.49 16.8 203.49 64.19 178.86 81.17 133.48 73.65" fill="none" stroke="#fff" stroke-miterlimit="10" stroke-width="3"/><line x1="178.86" y1="81.17" x2="178.86" y2="37.98" fill="none" stroke="#fff" stroke-miterlimit="10" stroke-width="2"/><line x1="90.03" y1="97.43" x2="90.03" y2="45.68" fill="none" stroke="#fff" stroke-miterlimit="10" stroke-width="2"/></svg>