<svg id="Layer_1" data-name="Layer 1" xmlns="http://www.w3.org/2000/svg" viewBox="0 0 210.38 113.49"><title>Artboard 1</title><path d="M105.77,63.75l95.52,14s-81.49,33.55-82.42,33.78S13.06,85.94,13.06,85.94Z" fill="#4b64f9"/><polyline points="22.06 26.05 22.06 77.88 116.07 96.85 191.12 70.64 191.12 31.27" fill="none" stroke="#fff" stroke-miterlimit="10" stroke-width="3"/><polygon points="4.87 27.27 4.87 30.5 59.05 17.09 125.09 45.71 205.93 27.32 205.93 24.35 146.96 3 58.94 13.33 4.87 27.27" fill="none" stroke="#fff" stroke-miterlimit="10" stroke-width="2"/><polyline points="124.84 45.71 124.84 41.74 58.94 13.33" fill="none" stroke="#fff" stroke-miterlimit="10" stroke-width="2"/><line x1="124.84" y1="41.74" x2="205.93" y2="24.35" fill="none" stroke="#fff" stroke-miterlimit="10" stroke-width="2"/><polyline points="98.37 93.45 98.37 57.83 80.53 54.02 80.53 88.12" fill="none" stroke="#fff" stroke-miterlimit="10" stroke-width="2"/><line x1="21.66" y1="28.28" x2="4.47" y2="30.5" fill="none" stroke="#fff" stroke-miterlimit="10" stroke-width="2"/><line x1="116.07" y1="42.58" x2="116.07" y2="96.92" fill="none" stroke="#fff" stroke-miterlimit="10" stroke-width="3"/></svg>