<svg id="Layer_2" data-name="Layer 2" xmlns="http://www.w3.org/2000/svg" viewBox="0 0 210.38 113.49"><title>Artboard 1</title><polygon points="207.66 65.72 124.02 56.23 4.09 91.11 105.89 113.49 207.66 65.72" fill="#4b64f9"/><polyline points="17.65 32.05 17.7 81.37 99.89 100.66 195.48 59.03 195.48 26.69" fill="none" stroke="#fff" stroke-miterlimit="10" stroke-width="3"/><line x1="106.83" y1="48.08" x2="49.91" y2="17.63" fill="none" stroke="#fff" stroke-miterlimit="10" stroke-width="2"/><polygon points="207.79 23.05 207.79 20.09 161.59 1.03 49.91 17.63 2.61 33.01 2.61 36.57 50.01 21.78 106.83 52.48 207.79 23.05" fill="none" stroke="#fff" stroke-miterlimit="10" stroke-width="2"/><polyline points="207.51 20.45 106.83 48.06 106.83 52.32" fill="none" stroke="#fff" stroke-miterlimit="10" stroke-width="2"/><line x1="99.89" y1="48.73" x2="99.89" y2="100.66" fill="none" stroke="#fff" stroke-miterlimit="10" stroke-width="3"/><polyline points="116.82 92.83 116.82 62.29 131.83 59.02 131.83 88.25" fill="none" stroke="#fff" stroke-miterlimit="10" stroke-width="2"/></svg>